# xmcd
# 
# Track frame offsets:
#     150
#     17958
#     38019
#     59345
#     86797
# 
# Disc length: 1395
# 
# Revision: 0
# Processed by: cddbd v1.5.2PL0 Copyright (c) Steve Scherf et al.
# Submitted via: BonkEnc v1.0.6
# 
DISCID=3a057105
DTITLE=In Corridors - Short Short Land
DYEAR=2006
DGENRE=Rock
TTITLE0=Pink Truth
TTITLE1=New World
TTITLE2=Miss
TTITLE3=The Right
TTITLE4=Holiday
EXTD=
EXTT0=
EXTT1=
EXTT2=
EXTT3=
EXTT4=
PLAYORDER=
